<svg xmlns="http://www.w3.org/2000/svg" width="800" height="600" viewBox="0 0 800 600">
  <!-- Gedung Puskesmas -->
  <rect width="800" height="600" fill="#e8f5e9"/>
  
  <!-- Langit -->
  <rect x="0" y="0" width="800" height="200" fill="#bbdefb"/>
  <path d="M0,200 Q200,180 400,200 T800,200 V0 H0 Z" fill="#90caf9"/>
  
  <!-- Rumput -->
  <rect x="0" y="450" width="800" height="150" fill="#81c784"/>
  <path d="M0,450 Q200,430 400,450 T800,450 V600 H0 Z" fill="#66bb6a"/>
  
  <!-- Jalan -->
  <path d="M0,500 L800,500 L800,550 L0,550 Z" fill="#9e9e9e"/>
  <path d="M100,500 L150,500 L150,550 L100,550 Z" fill="#bdbdbd"/>
  <path d="M250,500 L300,500 L300,550 L250,550 Z" fill="#bdbdbd"/>
  <path d="M400,500 L450,500 L450,550 L400,550 Z" fill="#bdbdbd"/>
  <path d="M550,500 L600,500 L600,550 L550,550 Z" fill="#bdbdbd"/>
  <path d="M700,500 L750,500 L750,550 L700,550 Z" fill="#bdbdbd"/>
  
  <!-- Gedung Utama -->
  <rect x="300" y="150" width="300" height="300" fill="#4caf50"/>
  
  <!-- Pola Dekoratif Gedung -->
  <rect x="300" y="150" width="300" height="50" fill="#388e3c"/>
  <rect x="300" y="250" width="300" height="100" fill="#81c784"/>
  <rect x="300" y="250" width="300" height="10" fill="#388e3c"/>
  <rect x="300" y="340" width="300" height="10" fill="#388e3c"/>
  
  <!-- Pintu Utama -->
  <rect x="400" y="350" width="100" height="100" fill="#f5f5f5"/>
  <rect x="440" y="350" width="20" height="100" fill="#e0e0e0"/>
  
  <!-- Jendela -->
  <rect x="320" y="270" width="40" height="60" fill="#e0e0e0"/>
  <rect x="380" y="270" width="40" height="60" fill="#e0e0e0"/>
  <rect x="440" y="270" width="40" height="60" fill="#e0e0e0"/>
  <rect x="500" y="270" width="40" height="60" fill="#e0e0e0"/>
  <rect x="560" y="270" width="40" height="60" fill="#e0e0e0"/>
  
  <!-- Tiang Depan -->
  <rect x="380" y="350" width="10" height="100" fill="#757575"/>
  <rect x="510" y="350" width="10" height="100" fill="#757575"/>
  
  <!-- Pagar -->
  <rect x="100" y="450" width="600" height="10" fill="#424242"/>
  <rect x="100" y="430" width="10" height="30" fill="#424242"/>
  <rect x="200" y="430" width="10" height="30" fill="#424242"/>
  <rect x="300" y="430" width="10" height="30" fill="#424242"/>
  <rect x="400" y="430" width="10" height="30" fill="#424242"/>
  <rect x="500" y="430" width="10" height="30" fill="#424242"/>
  <rect x="600" y="430" width="10" height="30" fill="#424242"/>
  <rect x="700" y="430" width="10" height="30" fill="#424242"/>
  
  <!-- Gerbang -->
  <rect x="350" y="430" width="100" height="5" fill="#424242"/>
  
  <!-- Tulisan -->
  <rect x="100" y="200" width="150" height="150" fill="#424242"/>
  <text x="175" y="240" font-family="Arial" font-size="12" font-weight="bold" fill="#4CAF50" text-anchor="middle">PUSKESMAS</text>
  <text x="175" y="260" font-family="Arial" font-size="12" font-weight="bold" fill="#4CAF50" text-anchor="middle">KECAMATAN</text>
  <text x="175" y="280" font-family="Arial" font-size="12" font-weight="bold" fill="#4CAF50" text-anchor="middle">KEPULAUAN</text>
  <text x="175" y="300" font-family="Arial" font-size="12" font-weight="bold" fill="#4CAF50" text-anchor="middle">SERIBU</text>
  <text x="175" y="320" font-family="Arial" font-size="12" font-weight="bold" fill="#4CAF50" text-anchor="middle">SELATAN</text>
  
  <!-- Orang-orang -->
  <!-- Orang 1 -->
  <circle cx="350" y="480" r="10" fill="#ffcc80"/>
  <rect x="345" y="490" width="10" height="20" fill="#1976d2"/>
  <rect x="345" y="510" width="5" height="15" fill="#1976d2"/>
  <rect x="350" y="510" width="5" height="15" fill="#1976d2"/>
  
  <!-- Orang 2 -->
  <circle cx="400" y="480" r="10" fill="#ffcc80"/>
  <rect x="395" y="490" width="10" height="20" fill="#e53935"/>
  <rect x="395" y="510" width="5" height="15" fill="#e53935"/>
  <rect x="400" y="510" width="5" height="15" fill="#e53935"/>
  
  <!-- Orang 3 -->
  <circle cx="450" y="480" r="10" fill="#ffcc80"/>
  <rect x="445" y="490" width="10" height="20" fill="#ff9800"/>
  <rect x="445" y="510" width="5" height="15" fill="#ff9800"/>
  <rect x="450" y="510" width="5" height="15" fill="#ff9800"/>
  
  <!-- Sepeda -->
  <circle cx="250" y="520" r="15" fill="none" stroke="#424242" stroke-width="2"/>
  <circle cx="300" y="520" r="15" fill="none" stroke="#424242" stroke-width="2"/>
  <line x1="250" y1="520" x2="300" y2="520" stroke="#424242" stroke-width="2"/>
  <line x1="250" y1="520" x2="230" y2="490" stroke="#424242" stroke-width="2"/>
  <line x1="230" y1="490" x2="270" y2="490" stroke="#424242" stroke-width="2"/>
  <line x1="270" y1="490" x2="300" y2="520" stroke="#424242" stroke-width="2"/>
  <circle cx="230" y="480" r="10" fill="#ffcc80"/>
</svg>