<svg xmlns="http://www.w3.org/2000/svg" width="800" height="600" viewBox="0 0 800 600">
  <!-- Resepsionis Puskesmas -->
  <rect width="800" height="600" fill="#f5f5f5"/>
  
  <!-- Meja Resepsionis -->
  <rect x="100" y="300" width="600" height="200" rx="20" fill="#e0e0e0" stroke="#bdbdbd" stroke-width="3"/>
  <rect x="100" y="350" width="600" height="20" fill="#bdbdbd"/>
  
  <!-- Dinding Belakang -->
  <rect x="0" y="0" width="800" height="300" fill="#f0f0f0" stroke="#e0e0e0" stroke-width="2"/>
  <line x1="0" y1="300" x2="800" y2="300" stroke="#bdbdbd" stroke-width="3"/>
  
  <!-- Tulisan Puskesmas -->
  <text x="400" y="100" font-family="Arial" font-size="40" font-weight="bold" fill="#4CAF50" text-anchor="middle">PUSKESMAS KECAMATAN</text>
  <text x="400" y="150" font-family="Arial" font-size="40" font-weight="bold" fill="#4CAF50" text-anchor="middle">KEPULAUAN SERIBU</text>
  <text x="400" y="200" font-family="Arial" font-size="40" font-weight="bold" fill="#4CAF50" text-anchor="middle">SELATAN</text>
  
  <!-- Logo Puskesmas -->
  <circle cx="200" cy="100" r="30" fill="#ffffff" stroke="#4CAF50" stroke-width="3"/>
  <rect x="185" y="85" width="30" height="10" fill="#4CAF50"/>
  <rect x="195" y="75" width="10" height="30" fill="#4CAF50"/>
  
  <!-- Komputer -->
  <rect x="350" y="250" width="100" height="70" rx="5" fill="#424242"/>
  <rect x="360" y="260" width="80" height="50" fill="#90CAF9"/>
  <rect x="390" y="320" width="20" height="10" fill="#424242"/>
  <rect x="380" y="330" width="40" height="5" fill="#424242"/>
  
  <!-- Kursi -->
  <rect x="380" y="400" width="40" height="50" rx="5" fill="#795548"/>
  <rect x="375" y="450" width="50" height="5" fill="#5D4037"/>
  
  <!-- Kursi Pengunjung -->
  <rect x="150" y="500" width="40" height="40" rx="5" fill="#F44336"/>
  <rect x="145" y="540" width="50" height="5" fill="#D32F2F"/>
  <line x1="170" y1="500" x2="170" y2="480" stroke="#BDBDBD" stroke-width="2"/>
  
  <!-- Rak Dokumen -->
  <rect x="600" y="350" width="50" height="80" fill="#FFCDD2"/>
  <rect x="600" y="350" width="50" height="20" fill="#EF9A9A"/>
  <rect x="600" y="370" width="50" height="20" fill="#EF9A9A"/>
  <rect x="600" y="390" width="50" height="20" fill="#EF9A9A"/>
  <rect x="600" y="410" width="50" height="20" fill="#EF9A9A"/>
</svg>